#tb 0: 1/50
#media_type 0: video
#codec_id 0: rawvideo
#dimensions 0: 1920x1080
#sar 0: 1/1
0,          0,          0,        1,  3110400, 0x7f744ab9
0,          1,          1,        1,  3110400, 0x5f077ff0
0,          2,          2,        1,  3110400, 0x25932fe2
0,          3,          3,        1,  3110400, 0x5b2cd739
0,          4,          4,        1,  3110400, 0xbbfe65ec
0,          5,          5,        1,  3110400, 0xb53eab5f
0,          6,          6,        1,  3110400, 0x9f318977
0,          7,          7,        1,  3110400, 0x205cc30c
0,          8,          8,        1,  3110400, 0x06ea7dfc
0,          9,          9,        1,  3110400, 0x7597691a
